<svg width="200" height="100" viewBox="0 0 200 100" fill="none" xmlns="http://www.w3.org/2000/svg">
<path d="M30.5328 91C21.2064 91 13.8416 89.0271 8.43815 85.0811C3.03477 81.1892 0.29608 75.7298 0.222057 68.7027C0.222057 66.7568 0.444113 64.6756 0.888226 62.4595C1.40636 60.2433 2.25757 58.1081 3.44188 56.0541C4.62618 54 6.25459 52.2432 8.32712 50.7838C5.8845 49.4865 3.88599 47.919 2.33159 46.0811C0.777198 44.2432 0 42.1892 0 39.9189C0 38.6216 0.259062 37.3784 0.777198 36.1892C1.88748 33.2162 3.96001 30.8919 6.99478 29.2162C10.1036 27.5405 13.8416 26.3514 18.2086 25.6486C22.5757 24.8919 27.313 24.5135 32.4203 24.5135C33.9006 24.5135 35.3811 24.5405 36.8614 24.5946C38.4158 24.6487 39.9332 24.7298 41.4136 24.8378C50.2218 25.4865 58.882 26.6486 67.3942 28.3243C75.9064 29.9459 84.6776 31.6217 93.7079 33.3514C95.4103 33.6757 97.1128 34.027 98.8152 34.4054C100.592 34.7297 102.294 35.0271 103.923 35.2973L111.472 22.1622C111.694 22.1081 111.88 22.0811 112.028 22.0811C112.25 22.027 112.472 22 112.694 22C114.1 22 115.136 22.4865 115.803 23.4595C116.469 24.3783 116.802 25.2432 116.802 26.0541C116.802 26.4865 116.691 26.8379 116.469 27.1081L110.251 36.2703C113.582 36.8108 116.95 37.2432 120.355 37.5676C123.76 37.8378 127.275 37.973 130.902 37.973C131.494 37.973 132.087 37.973 132.679 37.973C133.271 37.9189 133.864 37.8919 134.455 37.8919C135.862 37.8378 137.416 37.6486 139.118 37.3243C140.82 36.9459 142.302 36.4054 143.56 35.7027C144.818 35 145.447 34.1352 145.447 33.1081C145.447 32.7297 145.336 32.3243 145.114 31.8919C144.966 31.4595 144.633 31 144.115 30.5135C143.671 30.0811 143.079 29.6486 142.338 29.2162C141.598 28.7838 140.673 28.2432 139.563 27.5946C139.488 27.5405 139.452 27.4594 139.452 27.3514C139.452 27.1351 139.674 27.027 140.118 27.027C140.414 27.027 140.784 27.1081 141.228 27.2703C142.116 27.5946 143.152 28.1081 144.337 28.8108C145.595 29.5135 146.668 30.3244 147.557 31.2432C148.519 32.1621 149 33.1622 149 34.2432C149 35.5946 148.259 36.7027 146.779 37.5676C145.299 38.3784 143.56 38.9729 141.561 39.3514C139.637 39.7298 137.861 39.9459 136.232 40C135.713 40 135.158 40.027 134.566 40.0811C134.048 40.0811 133.493 40.0811 132.901 40.0811C128.978 40.0811 125.018 39.8648 121.021 39.4324C117.098 39 113.175 38.4595 109.252 37.8108C105.921 42.6216 102.257 47.5405 98.2601 52.5676C94.3371 57.5405 90.007 62.3243 85.2697 66.9189C80.6066 71.4595 75.4993 75.5405 69.9478 79.1622C64.3964 82.8378 58.3268 85.7297 51.7392 87.8378C45.2255 89.9459 38.1568 91 30.5328 91ZM32.6423 87.2703C40.0443 87.2703 46.7799 86.2973 52.8495 84.3513C58.9191 82.4595 64.3964 79.8378 69.2817 76.4865C74.241 73.1892 78.7191 69.3783 82.7161 65.0541C86.7872 60.7298 90.4881 56.1621 93.8189 51.3514C97.1498 46.4865 100.259 41.5946 103.145 36.6757C101.295 36.3514 99.4444 36.027 97.5939 35.7027C95.7434 35.3784 93.93 35.0271 92.1535 34.6486C86.7501 33.6216 81.0507 32.5675 75.0551 31.4865C69.0596 30.3514 62.9161 29.4054 56.6244 28.6486C50.3328 27.8919 43.9672 27.5135 37.5276 27.5135C35.2329 27.5135 32.9013 27.5946 30.5328 27.7568C28.2382 27.8648 25.9066 28.0541 23.538 28.3243C19.9851 28.7567 16.6173 29.6216 13.4344 30.9189C10.3256 32.1621 7.77198 33.6757 5.77347 35.4595C3.84899 37.2432 2.88674 39.1351 2.88674 41.1351C2.88674 43.1892 4.07104 45.1622 6.43964 47.0541C6.80973 47.4325 7.36487 47.8108 8.10507 48.1892C8.84526 48.5676 9.65946 48.973 10.5477 49.4054C11.2879 49.027 12.028 48.7298 12.7683 48.5135C13.2124 48.4054 13.5455 48.3514 13.7675 48.3514C14.1376 48.3514 14.3967 48.4324 14.5447 48.5946C14.6927 48.7027 14.5817 48.8378 14.2116 49C13.3975 49.3243 12.6942 49.6756 12.1021 50.0541C13.8785 50.8108 15.766 51.5405 17.7645 52.2432C19.763 52.8919 21.4654 53.3514 22.8718 53.6216C23.8341 53.6757 24.3152 53.9189 24.3152 54.3514C24.3152 54.6757 23.9451 54.7568 23.2049 54.5946C18.6158 54.4865 14.2486 53.5135 10.1036 51.6757C7.88301 53.6757 6.25459 56.1621 5.21833 59.1351C4.18207 62.1081 3.66393 64.8919 3.66393 67.4865C3.66393 74.3514 6.21759 79.3513 11.3249 82.4865C16.5063 85.6756 23.6121 87.2703 32.6423 87.2703Z" fill="#1590AB"/>
<path d="M100.395 57H66V77H100.395V57Z" fill="white"/>
<path d="M47.396 65.216V61.4H58.466V65.216H57.368L56.63 62.786H54.398V72.596L56.054 72.992V74H49.808V72.992L51.464 72.596V62.786H49.214L48.476 65.216H47.396ZM58.0981 69.392C58.0981 67.976 58.4941 66.848 59.2861 66.008C60.0901 65.156 61.1761 64.73 62.5441 64.73C63.9361 64.73 64.9861 65.204 65.6941 66.152C66.4141 67.1 66.7741 68.27 66.7741 69.662H60.8701C60.9541 70.55 61.2721 71.318 61.8241 71.966C62.3761 72.602 63.0841 72.92 63.9481 72.92C64.5961 72.92 65.2921 72.782 66.0361 72.506L66.4141 73.532C65.2981 74.024 64.2061 74.27 63.1381 74.27C61.5901 74.27 60.3601 73.82 59.4481 72.92C58.5481 72.008 58.0981 70.832 58.0981 69.392ZM60.8701 68.546L63.9121 68.348C63.9121 68.06 63.8941 67.796 63.8581 67.556C63.8221 67.304 63.7201 67.004 63.5521 66.656C63.2521 66.152 62.8981 65.9 62.4901 65.9C62.0101 65.9 61.6141 66.146 61.3021 66.638C61.1221 66.938 61.0021 67.268 60.9421 67.628C60.8821 67.988 60.8581 68.294 60.8701 68.546ZM67.1867 74V73.046L68.7167 72.686V61.238H67.1867V60.284L70.0667 59.6H71.4887V72.686L73.0187 73.046V74H67.1867ZM73.4445 69.392C73.4445 67.976 73.8405 66.848 74.6325 66.008C75.4365 65.156 76.5225 64.73 77.8905 64.73C79.2825 64.73 80.3325 65.204 81.0405 66.152C81.7605 67.1 82.1205 68.27 82.1205 69.662H76.2165C76.3005 70.55 76.6185 71.318 77.1705 71.966C77.7225 72.602 78.4305 72.92 79.2945 72.92C79.9425 72.92 80.6385 72.782 81.3825 72.506L81.7605 73.532C80.6445 74.024 79.5525 74.27 78.4845 74.27C76.9365 74.27 75.7065 73.82 74.7945 72.92C73.8945 72.008 73.4445 70.832 73.4445 69.392ZM76.2165 68.546L79.2585 68.348C79.2585 68.06 79.2405 67.796 79.2045 67.556C79.1685 67.304 79.0665 67.004 78.8985 66.656C78.5985 66.152 78.2445 65.9 77.8365 65.9C77.3565 65.9 76.9605 66.146 76.6485 66.638C76.4685 66.938 76.3485 67.268 76.2885 67.628C76.2285 67.988 76.2045 68.294 76.2165 68.546ZM81.9952 74V72.992L83.7592 72.578L88.0612 61.31H89.6272L93.6592 72.578L95.3872 72.992V74H89.2852V72.992L90.5632 72.686L89.7892 70.526H86.0092L85.1992 72.632L86.7112 72.992V74H81.9952ZM86.4952 69.284H89.3392L87.9352 65.45L86.4952 69.284ZM94.5481 78.446L96.0781 78.086V66.638H94.5481V65.684L97.4281 65H98.8501V65.864C99.5821 65.108 100.458 64.73 101.478 64.73C101.982 64.73 102.456 64.832 102.9 65.036C103.356 65.228 103.752 65.516 104.088 65.9C104.424 66.272 104.688 66.734 104.88 67.286C105.084 67.838 105.186 68.462 105.186 69.158C105.186 69.974 105.042 70.7 104.754 71.336C104.478 71.972 104.1 72.506 103.62 72.938C103.14 73.37 102.576 73.7 101.928 73.928C101.292 74.156 100.614 74.27 99.8941 74.27C99.4261 74.27 99.0781 74.234 98.8501 74.162V78.086L100.74 78.446V79.4H94.5481V78.446ZM98.8501 72.92C99.1261 73.04 99.4201 73.1 99.7321 73.1C100.5 73.1 101.124 72.776 101.604 72.128C102.084 71.468 102.324 70.502 102.324 69.23C102.324 68.258 102.156 67.538 101.82 67.07C101.484 66.602 101.022 66.368 100.434 66.368C100.17 66.368 99.8821 66.428 99.5701 66.548C99.2701 66.668 99.0301 66.818 98.8501 66.998V72.92ZM105.719 78.446L107.249 78.086V66.638H105.719V65.684L108.599 65H110.021V65.864C110.753 65.108 111.629 64.73 112.649 64.73C113.153 64.73 113.627 64.832 114.071 65.036C114.527 65.228 114.923 65.516 115.259 65.9C115.595 66.272 115.859 66.734 116.051 67.286C116.255 67.838 116.357 68.462 116.357 69.158C116.357 69.974 116.213 70.7 115.925 71.336C115.649 71.972 115.271 72.506 114.791 72.938C114.311 73.37 113.747 73.7 113.099 73.928C112.463 74.156 111.785 74.27 111.065 74.27C110.597 74.27 110.249 74.234 110.021 74.162V78.086L111.911 78.446V79.4H105.719V78.446ZM110.021 72.92C110.297 73.04 110.591 73.1 110.903 73.1C111.671 73.1 112.295 72.776 112.775 72.128C113.255 71.468 113.495 70.502 113.495 69.23C113.495 68.258 113.327 67.538 112.991 67.07C112.655 66.602 112.193 66.368 111.605 66.368C111.341 66.368 111.053 66.428 110.741 66.548C110.441 66.668 110.201 66.818 110.021 66.998V72.92ZM122.075 74.27C121.391 74.27 120.749 74.15 120.149 73.91C119.561 73.67 119.051 73.34 118.619 72.92C118.187 72.5 117.845 71.996 117.593 71.408C117.341 70.82 117.215 70.178 117.215 69.482C117.215 68.786 117.341 68.15 117.593 67.574C117.845 66.986 118.187 66.482 118.619 66.062C119.051 65.642 119.561 65.318 120.149 65.09C120.749 64.85 121.391 64.73 122.075 64.73C122.759 64.73 123.395 64.85 123.983 65.09C124.571 65.318 125.081 65.642 125.513 66.062C125.957 66.482 126.299 66.986 126.539 67.574C126.791 68.15 126.917 68.786 126.917 69.482C126.917 70.166 126.791 70.802 126.539 71.39C126.299 71.978 125.957 72.488 125.513 72.92C125.081 73.34 124.571 73.67 123.983 73.91C123.395 74.15 122.759 74.27 122.075 74.27ZM120.113 69.482C120.113 70.61 120.275 71.498 120.599 72.146C120.935 72.782 121.427 73.1 122.075 73.1C122.723 73.1 123.209 72.782 123.533 72.146C123.869 71.498 124.037 70.61 124.037 69.482C124.037 68.366 123.869 67.49 123.533 66.854C123.209 66.218 122.723 65.9 122.075 65.9C121.427 65.9 120.935 66.218 120.599 66.854C120.275 67.49 120.113 68.366 120.113 69.482ZM127.699 74V73.046L129.229 72.686V66.638H127.699V65.684L130.579 65H132.001V72.686L133.531 73.046V74H127.699ZM128.941 62.228C128.941 61.76 129.103 61.37 129.427 61.058C129.751 60.734 130.147 60.572 130.615 60.572C131.095 60.572 131.491 60.734 131.803 61.058C132.127 61.37 132.289 61.76 132.289 62.228C132.289 62.708 132.127 63.11 131.803 63.434C131.491 63.758 131.095 63.92 130.615 63.92C130.147 63.92 129.751 63.758 129.427 63.434C129.103 63.11 128.941 62.708 128.941 62.228ZM133.984 74V73.046L135.514 72.686V66.638H133.984V65.684L136.864 65H138.286V65.882C139.018 65.114 139.924 64.73 141.004 64.73C141.472 64.73 141.892 64.802 142.264 64.946C142.648 65.078 142.966 65.27 143.218 65.522C143.482 65.774 143.686 66.074 143.83 66.422C143.974 66.77 144.046 67.148 144.046 67.556V72.686L145.576 73.046V74H140.104V73.046L141.274 72.686V68.06C141.274 67.688 141.25 67.388 141.202 67.16C141.166 66.932 141.1 66.758 141.004 66.638C140.908 66.506 140.776 66.422 140.608 66.386C140.452 66.338 140.254 66.314 140.014 66.314C139.558 66.314 138.982 66.578 138.286 67.106V72.686L139.456 73.046V74H133.984ZM145.84 66.26V65.54L148.9 63.362H149.566V65.09L151.798 65V66.26H149.566V71.408C149.566 71.996 149.632 72.41 149.764 72.65C149.896 72.89 150.166 73.01 150.574 73.01C150.874 73.01 151.276 72.902 151.78 72.686L152.068 73.694C151.348 74.078 150.586 74.27 149.782 74.27C147.79 74.27 146.794 73.346 146.794 71.498V66.26H145.84Z" fill="#CF7E04"/>
</svg>
